<svg xmlns="http://www.w3.org/2000/svg" width="900" height="700" viewBox="0 0 900 700"><circle cx="458.7" cy="344.2" r="266.46" fill="#eff6ff" stroke="#93c5fd" stroke-width="2.52" opacity=".55"/><path fill="none" stroke="#93c5fd" stroke-dasharray="9.45" stroke-linecap="round" stroke-linejoin="round" stroke-width="1.05" d="M 678.1,495.5 679.1,493.9 680.0,492.2 680.8,490.5 681.6,488.7 682.4,486.9 683.0,485.0 683.6,483.1 684.1,481.2 684.6,479.2 685.0,477.2 685.3,475.1 685.5,473.0 685.7,470.9 685.8,468.7 685.8,466.5 685.8,464.2 685.7,461.9 685.5,459.6 685.3,457.2 685.0,454.8 684.6,452.4 684.1,449.9 683.6,447.4 683.1,444.9 682.4,442.3 681.7,439.8 680.9,437.1 680.0,434.5 679.1,431.8 678.1,429.1 677.1,426.4 675.9,423.6 674.7,420.9 673.5,418.1 672.2,415.2 670.8,412.4 669.3,409.5 667.8,406.7 666.2,403.7 664.6,400.8 662.9,397.9 661.1,394.9 659.3,392.0 657.4,389.0 655.5,386.0 653.5,383.0 651.4,379.9 649.3,376.9 647.1,373.9 644.8,370.8 642.5,367.8 640.2,364.7 637.8,361.6 635.3,358.5 632.8,355.5 630.2,352.4 627.6,349.3 624.9,346.2 622.2,343.1 619.4,340.0 616.6,336.9 613.7,333.8 610.8,330.7 607.8,327.7 604.8,324.6 601.7,321.5 598.6,318.4 595.5,315.4 592.3,312.3 589.1,309.3 585.8,306.3 582.5,303.3 579.2,300.3 575.8,297.3 572.4,294.3 568.9,291.3 565.5,288.4 561.9,285.5 558.4,282.6 554.8,279.7 551.2,276.8 547.6,274.0 543.9,271.1 540.2,268.3 536.5,265.6 532.8,262.8 529.0,260.1 525.2,257.4 521.4,254.7 517.6,252.0 513.8,249.4 509.9,246.8 506.1,244.2 502.2,241.7 498.3,239.2 494.4,236.7 490.5,234.3 486.5,231.9 482.6,229.5 478.6,227.2 474.7,224.9 470.7,222.6 466.8,220.4 462.8,218.2 458.8,216.0 454.9,213.9 450.9,211.8 447.0,209.8 443.0,207.8 439.1,205.9 435.1,203.9 431.2,202.1 427.2,200.3 423.3,198.5 419.4,196.7 415.5,195.1 411.6,193.4 407.8,191.8 403.9,190.3 400.1,188.8 396.2,187.3 392.4,185.9 388.7,184.5 384.9,183.2 381.2,181.9 377.5,180.7 373.8,179.6 370.1,178.5 366.5,177.4 362.9,176.4 359.3,175.4 355.7,174.5 352.2,173.6 348.7,172.8 345.3,172.1 341.9,171.4 338.5,170.7 335.1,170.1 331.8,169.6 328.6,169.1 325.3,168.7 322.1,168.3 319.0,167.9 315.9,167.7 312.8,167.5 309.8,167.3 306.9,167.2 303.9,167.1 301.1,167.1 298.2,167.1 295.4,167.2 292.7,167.4 290.0,167.6 287.4,167.9 284.8,168.2 282.3,168.6 279.8,169.0 277.4,169.5 275.1,170.0 272.8,170.6 270.5,171.2 268.3,171.9 266.2,172.6 264.1,173.4 262.1,174.3 260.2,175.2 258.3,176.1 256.4,177.1 254.7,178.2 253.0,179.3 251.3,180.4 249.7,181.6 248.2,182.9 246.7,184.2 245.4,185.5 244.0,186.9 242.8,188.4 241.6,189.9 240.5,191.4" opacity=".8"/><path fill="none" stroke="#93c5fd" stroke-linecap="round" stroke-linejoin="round" stroke-width="1.05" d="M 239.4,193.0 238.4,194.6 237.5,196.3 236.6,198.0 235.8,199.8 235.1,201.6 234.4,203.5 233.8,205.4 233.3,207.3 232.9,209.3 232.5,211.3 232.2,213.4 231.9,215.5 231.8,217.6 231.7,219.8 231.6,222.0 231.7,224.3 231.8,226.6 231.9,228.9 232.2,231.3 232.5,233.7 232.9,236.1 233.3,238.6 233.8,241.1 234.4,243.6 235.0,246.1 235.8,248.7 236.6,251.4 237.4,254.0 238.3,256.7 239.3,259.4 240.4,262.1 241.5,264.9 242.7,267.6 244.0,270.4 245.3,273.2 246.7,276.1 248.1,279.0 249.6,281.8 251.2,284.7 252.8,287.7 254.5,290.6 256.3,293.6 258.1,296.5 260.0,299.5 262.0,302.5 264.0,305.5 266.1,308.5 268.2,311.6 270.4,314.6 272.6,317.7 274.9,320.7 277.3,323.8 279.7,326.9 282.2,330.0 284.7,333.0 287.2,336.1 289.9,339.2 292.5,342.3 295.3,345.4 298.0,348.5 300.9,351.6 303.7,354.7 306.7,357.8 309.6,360.8 312.6,363.9 315.7,367.0 318.8,370.0 321.9,373.1 325.1,376.1 328.4,379.2 331.6,382.2 334.9,385.2 338.3,388.2 341.6,391.2 345.1,394.2 348.5,397.1 352.0,400.1 355.5,403.0 359.1,405.9 362.6,408.8 366.2,411.7 369.9,414.5 373.5,417.3 377.2,420.2 380.9,422.9 384.7,425.7 388.4,428.4 392.2,431.1 396.0,433.8 399.8,436.5 403.7,439.1 407.5,441.7 411.4,444.3 415.3,446.8 419.2,449.3 423.1,451.8 427.0,454.2 430.9,456.6 434.9,459.0 438.8,461.3 442.8,463.6 446.7,465.9 450.7,468.1 454.6,470.3 458.6,472.5 462.6,474.6 466.5,476.7 470.5,478.7 474.4,480.7 478.4,482.6 482.3,484.5 486.3,486.4 490.2,488.2 494.1,490.0 498.0,491.7 501.9,493.4 505.8,495.1 509.7,496.7 513.5,498.2 517.4,499.7 521.2,501.2 525.0,502.6 528.8,504.0 532.5,505.3 536.3,506.5 540.0,507.8 543.7,508.9 547.3,510.0 551.0,511.1 554.6,512.1 558.2,513.1 561.7,514.0 565.2,514.8 568.7,515.7 572.2,516.4 575.6,517.1 579.0,517.8 582.3,518.4 585.6,518.9 588.9,519.4 592.1,519.8 595.3,520.2 598.4,520.5 601.5,520.8 604.6,521.0 607.6,521.2 610.6,521.3 613.5,521.4 616.4,521.4 619.2,521.3 622.0,521.2 624.7,521.1 627.4,520.9 630.0,520.6 632.6,520.3 635.1,519.9 637.6,519.5 640.0,519.0 642.4,518.5 644.7,517.9 646.9,517.3 649.1,516.6 651.3,515.8 653.3,515.1 655.3,514.2 657.3,513.3 659.2,512.4 661.0,511.4 662.8,510.3 664.5,509.2 666.1,508.1 667.7,506.9 669.2,505.6 670.7,504.3 672.1,503.0 673.4,501.6 674.7,500.1 675.9,498.6 677.0,497.1" opacity=".8"/><path fill="none" stroke="#3b82f6" stroke-linecap="round" stroke-linejoin="round" stroke-width="2.1" d="M 265.8,528.0 268.2,530.4 270.6,532.8 273.1,535.2 275.6,537.5 278.2,539.8 280.8,542.0 283.5,544.2 286.3,546.4 289.1,548.6 292.0,550.7 294.9,552.7 297.8,554.8 300.8,556.8 303.9,558.8 307.0,560.7 310.2,562.6 313.3,564.4 316.6,566.2 319.9,568.0 323.2,569.7 326.6,571.4 330.0,573.0 333.4,574.6 336.9,576.2 340.4,577.7 344.0,579.1 347.6,580.6 351.2,581.9 354.9,583.3 358.5,584.5 362.3,585.8 366.0,587.0 369.8,588.1 373.6,589.2 377.4,590.2 381.3,591.2 385.2,592.2 389.1,593.1 393.0,593.9 396.9,594.7 400.9,595.5 404.9,596.2 408.9,596.8 412.9,597.4 416.9,598.0 421.0,598.5 425.0,598.9 429.1,599.3 433.1,599.7 437.2,600.0 441.3,600.2 445.4,600.4 449.5,600.6 453.6,600.7 457.7,600.7 461.8,600.7 465.9,600.6 470.0,600.5 474.1,600.3 478.1,600.1 482.2,599.9 486.3,599.5 490.4,599.2 494.4,598.7 498.5,598.3 502.5,597.7 506.5,597.2 510.5,596.5 514.5,595.9 518.5,595.1 522.4,594.4 526.4,593.5 530.3,592.7 534.2,591.7 538.0,590.8 541.9,589.7 545.7,588.7 549.5,587.6 553.3,586.4 557.0,585.2 560.7,583.9 564.4,582.6 568.0,581.3 571.6,579.9 575.2,578.4 578.7,577.0 582.2,575.4 585.7,573.8 589.1,572.2 592.5,570.6 595.9,568.9 599.2,567.1 602.4,565.3 605.7,563.5 608.8,561.7 612.0,559.7 615.0,557.8 618.1,555.8 621.1,553.8 624.0,551.7 626.9,549.6 629.7,547.5 632.5,545.4 635.2,543.2 637.9,540.9 640.5,538.7 643.1,536.4 645.6,534.0 648.1,531.7 650.4,529.3 652.8,526.8"/><path fill="none" stroke="#3b82f6" stroke-dasharray="8.4" stroke-linecap="round" stroke-linejoin="round" stroke-width="2.1" d="M 655.1,524.4 657.3,521.9 659.4,519.4 661.5,516.9 663.6,514.3 665.5,511.7 667.4,509.1 669.3,506.5 671.1,503.8 672.8,501.1 674.4,498.4 676.0,495.7 677.5,493.0 679.0,490.2 680.4,487.5 681.7,484.7 682.9,481.9 684.1,479.0 685.2,476.2 686.3,473.3 687.3,470.5 688.2,467.6 689.0,464.7 689.8,461.8 690.5,458.9 691.1,456.0 691.6,453.1 692.1,450.1 692.5,447.2 692.9,444.3 693.1,441.3 693.3,438.4 693.5,435.4 693.5,432.5 693.5,429.5 693.4,426.6 693.2,423.6 693.0,420.7 692.7,417.8 692.3,414.8 691.9,411.9 691.4,409.0 690.8,406.0 690.1,403.1 689.4,400.2 688.6,397.3 687.7,394.5 686.8,391.6 685.8,388.7 684.7,385.9 683.6,383.0 682.3,380.2 681.1,377.4 679.7,374.6 678.3,371.9 676.8,369.1 675.3,366.4 673.6,363.7 672.0,361.0 670.2,358.3 668.4,355.7 666.5,353.1 664.6,350.5 662.6,347.9 660.5,345.4 658.4,342.8 656.2,340.3 654.0,337.9 651.7,335.4 649.3,333.0 646.9,330.6 644.4,328.3 641.8,326.0 639.3,323.7 636.6,321.4 633.9,319.2 631.2,317.0 628.3,314.9 625.5,312.8 622.6,310.7 619.6,308.7 616.6,306.7 613.5,304.7 610.4,302.8 607.3,300.9 604.1,299.0 600.9,297.2 597.6,295.5 594.3,293.8 590.9,292.1 587.5,290.4 584.0,288.8 580.5,287.3 577.0,285.8 573.5,284.3 569.9,282.9 566.2,281.5 562.6,280.2 558.9,278.9 555.2,277.7 551.4,276.5 547.6,275.3 543.8,274.3 540.0,273.2 536.2,272.2 532.3,271.3 528.4,270.4 524.4,269.5 520.5,268.7 516.5,268.0 512.6,267.3 508.6,266.6 504.6,266.0 500.5,265.5 496.5,265.0 492.4,264.5 488.4,264.1 484.3,263.8 480.2,263.5 476.1,263.2 472.1,263.0 468.0,262.9 463.9,262.8 459.8,262.8 455.7,262.8 451.6,262.8 447.5,263.0 443.4,263.1 439.3,263.3 435.2,263.6 431.2,263.9 427.1,264.3 423.0,264.7 419.0,265.2 415.0,265.7 410.9,266.3 406.9,266.9 402.9,267.6 399.0,268.3 395.0,269.1 391.1,269.9 387.2,270.8 383.3,271.7 379.4,272.7 375.6,273.7 371.7,274.8 368.0,275.9 364.2,277.1 360.5,278.3 356.7,279.5 353.1,280.8 349.4,282.2 345.8,283.6 342.2,285.0 338.7,286.5 335.2,288.0 331.7,289.6 328.3,291.2 324.9,292.9 321.6,294.6 318.3,296.3 315.0,298.1 311.8,299.9 308.6,301.8 305.5,303.7 302.4,305.7 299.4,307.6 296.4,309.7 293.4,311.7 290.6,313.8 287.7,315.9 284.9,318.1 282.2,320.3 279.5,322.5 276.9,324.8 274.4,327.1 271.8,329.4 269.4,331.8 267.0,334.2 264.7,336.6 262.4,339.1 260.2,341.5 258.0,344.1 255.9,346.6 253.9,349.1 251.9,351.7 250.0,354.3 248.2,357.0 246.4,359.6 244.7,362.3 243.0,365.0 241.4,367.7 239.9,370.5 238.5,373.2 237.1,376.0 235.8,378.8 234.5,381.6 233.3,384.4 232.2,387.3 231.2,390.1 230.2,393.0 229.3,395.9 228.5,398.7 227.7,401.6 227.0,404.5 226.4,407.5 225.8,410.4 225.3,413.3 224.9,416.2 224.6,419.2 224.3,422.1 224.1,425.1 224.0,428.0 223.9,431.0 224.0,433.9 224.0,436.9 224.2,439.8 224.4,442.8 224.7,445.7 225.1,448.6 225.6,451.6 226.1,454.5 226.7,457.4 227.3,460.3 228.1,463.2 228.9,466.1 229.7,469.0 230.7,471.9 231.7,474.7 232.7,477.6 233.9,480.4 235.1,483.2 236.4,486.0 237.7,488.8 239.2,491.6 240.6,494.3 242.2,497.1 243.8,499.8 245.5,502.5 247.2,505.1 249.1,507.8 250.9,510.4 252.9,513.0 254.9,515.6 256.9,518.1 259.1,520.6 261.2,523.1 263.5,525.6"/><path fill="none" stroke="#f97316" stroke-dasharray="8.4" stroke-linecap="round" stroke-linejoin="round" stroke-width="2.1" d="M 570.4,586.2 568.7,586.9 567.0,587.6 565.2,588.2 563.3,588.9 561.4,589.4 559.5,590.0 557.4,590.4 555.4,590.9 553.3,591.3 551.1,591.6 548.9,591.9 546.7,592.2 544.4,592.4 542.0,592.6 539.6,592.7 537.2,592.8 534.7,592.9 532.2,592.9 529.6,592.8 527.0,592.8 524.4,592.6 521.7,592.5 519.0,592.2 516.2,592.0 513.4,591.7 510.6,591.3 507.7,590.9 504.8,590.5 501.8,590.0 498.9,589.5 495.9,588.9 492.8,588.3 489.7,587.7 486.6,587.0 483.5,586.3 480.4,585.5 477.2,584.7 474.0,583.8 470.8,582.9 467.5,582.0 464.2,581.0 460.9,580.0 457.6,578.9 454.3,577.8 450.9,576.7 447.5,575.5 444.2,574.3 440.7,573.0 437.3,571.7 433.9,570.4 430.4,569.1 427.0,567.6 423.5,566.2 420.0,564.7 416.6,563.2 413.1,561.7 409.6,560.1 406.1,558.5 402.6,556.8 399.1,555.2 395.5,553.4 392.0,551.7 388.5,549.9 385.0,548.1 381.5,546.3 378.0,544.4 374.5,542.5 371.0,540.6 367.5,538.6 364.0,536.7 360.6,534.7 357.1,532.6 353.7,530.6 350.2,528.5 346.8,526.4 343.4,524.2 340.0,522.1 336.6,519.9 333.3,517.7 329.9,515.5 326.6,513.3 323.3,511.0 320.0,508.7 316.8,506.4 313.5,504.1 310.3,501.8 307.2,499.4 304.0,497.1 300.9,494.7 297.8,492.3 294.7,489.9 291.6,487.5 288.6,485.1 285.6,482.6 282.7,480.2 279.8,477.7 276.9,475.2 274.1,472.8 271.3,470.3 268.5,467.8 265.8,465.3 263.1,462.8 260.4,460.3 257.8,457.8 255.2,455.3 252.7,452.8 250.2,450.3 247.8,447.7 245.4,445.2 243.0,442.7 240.7,440.2 238.4,437.7 236.2,435.2 234.1,432.7 231.9,430.2 229.9,427.7 227.9,425.2 225.9,422.7 224.0,420.3 222.1,417.8 220.3,415.4 218.5,412.9 216.8,410.5 215.2,408.1 213.6,405.7 212.0,403.3 210.5,400.9 209.1,398.5 207.7,396.2 206.4,393.8 205.2,391.5 203.9,389.2 202.8,387.0 201.7,384.7 200.7,382.5 199.7,380.2 198.8,378.0 197.9,375.9 197.1,373.7 196.4,371.6 195.7,369.4 195.1,367.4 194.6,365.3 194.1,363.3 193.6,361.3 193.3,359.3 193.0,357.3 192.7,355.4 192.5,353.5 192.4,351.6"/><path fill="none" stroke="#f97316" stroke-linecap="round" stroke-linejoin="round" stroke-width="2.1" d="M 192.3,349.8 192.3,348.0 192.4,346.2 192.5,344.4 192.7,342.7 192.9,341.0 193.2,339.4 193.6,337.8 194.0,336.2 194.5,334.6 195.0,333.1 195.6,331.6 196.3,330.2 197.0,328.8 197.8,327.4 198.6,326.1 199.5,324.8 200.5,323.5 201.5,322.3 202.6,321.1 203.7,320.0 204.9,318.9 206.2,317.8 207.5,316.8 208.9,315.8 210.3,314.8 211.8,313.9 213.3,313.1 214.9,312.2 216.5,311.5 218.2,310.7 220.0,310.0 221.8,309.4 223.7,308.8 225.6,308.2 227.5,307.7 229.5,307.2 231.6,306.8 233.7,306.4 235.9,306.0 238.1,305.7 240.3,305.4 242.6,305.2 245.0,305.0 247.4,304.9 249.8,304.8 252.3,304.8 254.8,304.7 257.4,304.8 260.0,304.9 262.6,305.0 265.3,305.2 268.0,305.4 270.8,305.6 273.6,306.0 276.4,306.3 279.3,306.7 282.2,307.1 285.1,307.6 288.1,308.1 291.1,308.7 294.2,309.3 297.2,309.9 300.3,310.6 303.5,311.4 306.6,312.1 309.8,312.9 313.0,313.8 316.2,314.7 319.5,315.6 322.8,316.6 326.1,317.6 329.4,318.7 332.7,319.8 336.1,320.9 339.4,322.1 342.8,323.3 346.2,324.6 349.7,325.9 353.1,327.2 356.5,328.6 360.0,330.0 363.5,331.4 366.9,332.9 370.4,334.4 373.9,335.9 377.4,337.5 380.9,339.1 384.4,340.8 387.9,342.5 391.4,344.2 394.9,345.9 398.5,347.7 402.0,349.5 405.5,351.3 409.0,353.2 412.5,355.1 416.0,357.0 419.5,359.0 422.9,361.0 426.4,363.0 429.9,365.0 433.3,367.1 436.7,369.1 440.2,371.2 443.6,373.4 447.0,375.5 450.3,377.7 453.7,379.9 457.0,382.1 460.4,384.4 463.7,386.6 466.9,388.9 470.2,391.2 473.4,393.5 476.6,395.8 479.8,398.2 483.0,400.5 486.1,402.9 489.2,405.3 492.3,407.7 495.3,410.1 498.3,412.6 501.3,415.0 504.3,417.4 507.2,419.9 510.1,422.4 512.9,424.9 515.7,427.3 518.5,429.8 521.2,432.3 523.9,434.8 526.6,437.3 529.2,439.8 531.8,442.3 534.3,444.9 536.8,447.4 539.2,449.9 541.6,452.4 544.0,454.9 546.3,457.4 548.5,459.9 550.7,462.4 552.9,464.9 555.0,467.4 557.1,469.9 559.1,472.4 561.1,474.9 563.0,477.4 564.9,479.8 566.7,482.3 568.4,484.7 570.1,487.1 571.8,489.6 573.4,492.0 574.9,494.4 576.4,496.7 577.9,499.1 579.2,501.4 580.6,503.8 581.8,506.1 583.0,508.4 584.2,510.7 585.3,512.9 586.3,515.2 587.3,517.4 588.2,519.6 589.0,521.8 589.8,523.9 590.6,526.1 591.2,528.2 591.9,530.3 592.4,532.3 592.9,534.4 593.3,536.4 593.7,538.4 594.0,540.3 594.3,542.2 594.5,544.1 594.6,546.0 594.7,547.8 594.7,549.7 594.6,551.4 594.5,553.2 594.3,554.9 594.1,556.6 593.8,558.2 593.4,559.9 593.0,561.4 592.5,563.0 592.0,564.5 591.4,566.0 590.7,567.4 590.0,568.8 589.2,570.2 588.3,571.6 587.4,572.9 586.5,574.1 585.4,575.3 584.4,576.5 583.2,577.7 582.0,578.8 580.8,579.8 579.5,580.9 578.1,581.8 576.7,582.8 575.2,583.7 573.7,584.6 572.1,585.4"/><path fill="none" stroke="#a78bfa" stroke-dasharray="8.4" stroke-linecap="round" stroke-linejoin="round" stroke-width="1.26" d="M 458.7,344.2 459.3,344.2 459.8,344.2 460.3,344.2 460.9,344.2 461.4,344.3 461.9,344.4 462.4,344.5 462.9,344.6 463.4,344.8 463.8,344.9 464.3,345.1 464.7,345.3 465.2,345.6 465.6,345.9 466.0,346.1 466.4,346.5 466.8,346.8 467.2,347.1 467.6,347.5 468.0,347.9 468.3,348.3 468.7,348.8 469.0,349.3 469.3,349.7 469.7,350.3 470.0,350.8 470.3,351.3 470.5,351.9 470.8,352.5 471.1,353.1 471.3,353.8 471.5,354.4 471.7,355.1 472.0,355.8 472.1,356.5 472.3,357.2 472.5,358.0 472.7,358.8 472.8,359.6 472.9,360.4 473.1,361.2 473.2,362.0 473.3,362.9 473.3,363.8 473.4,364.7 473.5,365.6 473.5,366.5 473.6,367.5 473.6,368.5 473.6,369.5 473.6,370.4 473.6,371.5 473.5,372.5 473.5,373.5 473.4,374.6 473.4,375.7 473.3,376.7 473.2,377.8 473.1,379.0 473.0,380.1 472.9,381.2 472.7,382.4 472.6,383.5 472.4,384.7 472.2,385.9 472.0,387.1 471.8,388.3 471.6,389.5 471.4,390.7 471.1,392.0 470.9,393.2 470.6,394.4 470.4,395.7 470.1,397.0 469.8,398.2 469.5,399.5 469.2,400.8 468.8,402.1 468.5,403.4 468.1,404.7 467.8,406.0 467.4,407.3 467.0,408.6 466.6,409.9 466.2,411.3 465.8,412.6 465.4,413.9 464.9,415.2 464.5,416.6 464.0,417.9 463.5,419.2 463.1,420.6 462.6,421.9 462.1,423.2 461.6,424.6 461.1,425.9 460.6,427.2 460.0,428.6 459.5,429.9 458.9,431.2 458.4,432.5 457.8,433.8 457.2,435.2 456.7,436.5 456.1,437.8 455.5,439.1 454.9,440.4 454.3,441.6 453.7,442.9 453.1,444.2 452.4,445.5 451.8,446.7 451.2,448.0 450.5,449.2 449.9,450.4 449.2,451.7 448.5,452.9 447.9,454.1 447.2,455.3 446.5,456.5 445.9,457.6 445.2,458.8 444.5,459.9 443.8,461.1 443.1,462.2 442.4,463.3 441.7,464.4 441.0,465.5 440.3,466.6 439.6,467.6 438.9,468.7 438.2,469.7 437.4,470.7 436.7,471.7 436.0,472.7 435.3,473.7 434.6,474.6 433.9,475.6 433.1,476.5 432.4,477.4 431.7,478.3 431.0,479.1 430.2,480.0 429.5,480.8 428.8,481.6 428.1,482.4 427.4,483.2 426.7,484.0 425.9,484.7 425.2,485.4 424.5,486.1 423.8,486.8 423.1,487.4 422.4,488.1 421.7,488.7 421.0,489.3 420.3,489.9 419.6,490.4 418.9,491.0 418.3,491.5 417.6,492.0 416.9,492.4 416.3,492.9 415.6,493.3 414.9,493.7 414.3,494.1 413.6,494.4 413.0,494.8 412.4,495.1 411.7,495.4 411.1,495.6 410.5,495.9 409.9,496.1 409.3,496.3 408.7,496.5 408.1,496.6 407.5,496.8 406.9,496.9 406.4,496.9 405.8,497.0 405.3,497.0 404.7,497.0 404.2,497.0 403.7,497.0 403.2,496.9 402.6,496.9 402.1,496.8 401.7,496.6 401.2,496.5 400.7,496.3 400.2,496.1 399.8,495.9 399.4,495.7 398.9,495.4 398.5,495.1 398.1,494.8 397.7,494.5 397.3,494.1 396.9,493.7 396.6,493.3 396.2,492.9 395.9,492.5 395.5,492.0 395.2,491.5 394.9,491.0 394.6,490.5 394.3,489.9 394.0,489.3 393.7,488.7 393.5,488.1 393.2,487.5 393.0,486.8 392.8,486.2 392.6,485.5 392.4,484.7 392.2,484.0 392.0,483.3 391.9,482.5 391.7,481.7 391.6,480.9 391.5,480.0 391.4,479.2 391.3,478.3 391.2,477.4 391.1,476.5 391.1,475.6 391.0,474.7 391.0,473.7 391.0,472.8 390.9,471.8 391.0,470.8 391.0,469.8 391.0,468.8 391.0,467.7 391.1,466.7 391.2,465.6 391.2,464.5 391.3,463.4 391.4,462.3 391.6,461.2 391.7,460.0 391.8,458.9 392.0,457.7 392.1,456.5 392.3,455.4 392.5,454.2 392.7,453.0 392.9,451.7 393.2,450.5 393.4,449.3 393.6,448.1 393.9,446.8 394.2,445.5 394.5,444.3 394.8,443.0 395.1,441.7 395.4,440.4 395.7,439.2 396.1,437.9 396.4,436.6 396.8,435.2 397.2,433.9 397.5,432.6 397.9,431.3 398.3,430.0 398.8,428.7 399.2,427.3 399.6,426.0 400.1,424.7 400.5,423.3 401.0,422.0 401.5,420.7 402.0,419.3 402.4,418.0 403.0,416.7 403.5,415.3 404.0,414.0 404.5,412.7 405.1,411.4 405.6,410.0 406.2,408.7 406.7,407.4 407.3,406.1 407.9,404.8 408.5,403.5 409.0,402.2 409.6,400.9 410.3,399.6 410.9,398.3 411.5,397.0 412.1,395.8 412.7,394.5 413.4,393.3 414.0,392.0 414.7,390.8 415.3,389.6 416.0,388.4 416.7,387.2 417.3,386.0 418.0,384.8 418.7,383.6 419.4,382.4 420.1,381.3 420.7,380.2 421.4,379.0 422.1,377.9 422.8,376.8 423.5,375.7 424.2,374.7 425.0,373.6 425.7,372.6 426.4,371.5 427.1,370.5 427.8,369.5 428.5,368.5 429.2,367.6 430.0,366.6 430.7,365.7 431.4,364.8 432.1,363.9 432.9,363.0 433.6,362.1 434.3,361.3 435.0,360.4 435.7,359.6 436.4,358.8 437.2,358.0 437.9,357.3 438.6,356.6 439.3,355.8 440.0,355.1 440.7,354.5 441.4,353.8 442.1,353.2 442.8,352.5 443.5,352.0 444.2,351.4 444.9,350.8 445.6,350.3 446.3,349.8 446.9,349.3 447.6,348.8 448.3,348.4 448.9,348.0 449.6,347.5 450.3,347.2 450.9,346.8 451.5,346.5 452.2,346.2 452.8,345.9 453.4,345.6 454.0,345.4 454.7,345.1 455.3,344.9 455.9,344.8 456.4,344.6 457.0,344.5 457.6,344.4 458.2,344.3"/><path fill="none" stroke="#334155" stroke-linecap="round" stroke-linejoin="round" stroke-width="2.1" d="M 224.4,420.8 587.2,573.2"/><path fill="none" stroke="#94a3b8" stroke-dasharray="7.35" stroke-linecap="round" stroke-linejoin="round" stroke-width="1.16" d="M 458.7,344.2 458.7,431.7"/><path fill="none" stroke="#94a3b8" stroke-dasharray="7.35" stroke-linecap="round" stroke-linejoin="round" stroke-width="1.16" d="M 458.7,344.2 393.5,448.8"/><path fill="none" stroke="#94a3b8" stroke-dasharray="7.35" stroke-linecap="round" stroke-linejoin="round" stroke-width="1.16" d="M 458.7,431.7 405.8,497.0"/><path fill="none" stroke="#94a3b8" stroke-dasharray="7.35" stroke-linecap="round" stroke-linejoin="round" stroke-width="1.16" d="M 393.5,448.8 405.8,497.0"/><polygon fill="none" stroke="#334155" stroke-linejoin="round" stroke-width="1.36" points="405.8 497 421.2 503.5 430.2 492.4 414.8 485.9"/><polygon fill="none" stroke="#334155" stroke-linejoin="round" stroke-width="1.36" points="405.8 497 421.2 503.5 418.9 494.4 403.5 487.9"/><circle cx="224.4" cy="420.8" r="5.04" fill="#334155" stroke="#fff" stroke-width="1.47"/><text x="178.2" y="420.8" fill="#1e293b" dominant-baseline="middle" font-family="ui-sans-serif, system-ui, -apple-system, 'Segoe UI', 'PingFang SC', 'Microsoft YaHei', sans-serif" font-size="19.95" text-anchor="end" style="font-weight:600">A</text><circle cx="587.2" cy="573.2" r="5.04" fill="#334155" stroke="#fff" stroke-width="1.47"/><text x="633.4" y="573.2" fill="#1e293b" dominant-baseline="middle" font-family="ui-sans-serif, system-ui, -apple-system, 'Segoe UI', 'PingFang SC', 'Microsoft YaHei', sans-serif" font-size="19.95" text-anchor="start" style="font-weight:600">B</text><circle cx="405.8" cy="497" r="5.04" fill="#334155" stroke="#fff" stroke-width="1.47"/><text x="405.8" y="467.6" fill="#1e293b" dominant-baseline="middle" font-family="ui-sans-serif, system-ui, -apple-system, 'Segoe UI', 'PingFang SC', 'Microsoft YaHei', sans-serif" font-size="19.95" text-anchor="middle" style="font-weight:600">E</text><circle cx="458.7" cy="344.2" r="5.04" fill="#334155" stroke="#fff" stroke-width="1.47"/><text x="494.4" y="340" fill="#1e293b" dominant-baseline="middle" font-family="ui-sans-serif, system-ui, -apple-system, 'Segoe UI', 'PingFang SC', 'Microsoft YaHei', sans-serif" font-size="19.95" text-anchor="start" style="font-weight:600">O</text><circle cx="458.7" cy="431.7" r="5.04" fill="#3b82f6" stroke="#fff" stroke-width="1.47"/><text x="486" y="431.7" fill="#1e293b" dominant-baseline="middle" font-family="ui-sans-serif, system-ui, -apple-system, 'Segoe UI', 'PingFang SC', 'Microsoft YaHei', sans-serif" font-size="19.95" text-anchor="start" style="font-weight:600">O₁</text><circle cx="393.5" cy="448.8" r="5.04" fill="#f97316" stroke="#fff" stroke-width="1.47"/><text x="368.3" y="448.8" fill="#1e293b" dominant-baseline="middle" font-family="ui-sans-serif, system-ui, -apple-system, 'Segoe UI', 'PingFang SC', 'Microsoft YaHei', sans-serif" font-size="19.95" text-anchor="end" style="font-weight:600">O₂</text></svg>