<svg xmlns="http://www.w3.org/2000/svg"
 width="800"
 height="600"
 viewBox="0 0 800 600"
 font-family="ui-sans-serif, system-ui, -apple-system, 'Segoe UI', 'PingFang SC', 'Microsoft YaHei', 'Noto Sans CJK SC', 'WenQuanYi Zen Hei', sans-serif"
 stroke-linecap="round"
 stroke-linejoin="round">

<defs>
  <marker id="arr"
    markerHeight="7"
    markerWidth="7"
    orient="auto-start-reverse"
    refX="10"
    refY="5"
    viewBox="0 0 10 10">
    <path fill="#64748b" d="M 0 0 L 10 5 L 0 10 z"/>
  </marker>
</defs>

<!-- 右上角说明 -->
<text x="720" y="30"
 fill="#64748b"
 font-size="13"
 text-anchor="start"
 dominant-baseline="middle">
 变元 →
</text>

<!-- 左侧标签 -->
<text x="30" y="285"
 fill="#64748b"
 font-size="13"
 text-anchor="middle"
 dominant-baseline="middle"
 transform="rotate(-90 30 285)">
 ← 函数
</text>

<!-- 顶部列标题 -->
<text x="218" y="62"
 fill="#1E293B"
 font-size="15"
 text-anchor="middle"
 dominant-baseline="middle">
 标量 <tspan font-style="italic">x</tspan>
</text>

<text x="400" y="62"
 fill="#1E293B"
 font-size="15"
 text-anchor="middle"
 dominant-baseline="middle">
 向量 <tspan font-style="italic" font-weight="700">x</tspan>
</text>

<text x="582" y="62"
 fill="#1E293B"
 font-size="15"
 text-anchor="middle"
 dominant-baseline="middle">
 矩阵 <tspan font-style="italic" font-weight="700">X</tspan>
</text>

<!-- 左侧行标题 -->
<text x="108" y="145"
 fill="#1E293B"
 font-size="15"
 text-anchor="end"
 dominant-baseline="middle">
 标量 <tspan font-style="italic">f</tspan>
</text>

<text x="108" y="267"
 fill="#1E293B"
 font-size="15"
 text-anchor="end"
 dominant-baseline="middle">
 向量 <tspan font-style="italic" font-weight="700">f</tspan>
</text>

<text x="108" y="389"
 fill="#1E293B"
 font-size="15"
 text-anchor="end"
 dominant-baseline="middle">
 矩阵 <tspan font-style="italic" font-weight="700">F</tspan>
</text>

<!-- 九宫格 -->
<rect x="133" y="90" width="170" height="110" rx="12"
 fill="#FBF3DD" stroke="#C9A227" stroke-width="2.5"/>

<rect x="315" y="90" width="170" height="110" rx="12"
 fill="#FFFFFF" stroke="#E2E8F0" stroke-width="1.5"/>

<rect x="497" y="90" width="170" height="110" rx="12"
 fill="#FFFFFF" stroke="#E2E8F0" stroke-width="1.5"/>


<rect x="133" y="212" width="170" height="110" rx="12"
 fill="#FFFFFF" stroke="#E2E8F0" stroke-width="1.5"/>

<rect x="315" y="212" width="170" height="110" rx="12"
 fill="#FBF3DD" stroke="#C9A227" stroke-width="2.5"/>

<rect x="497" y="212" width="170" height="110" rx="12"
 fill="#FFFFFF" stroke="#E2E8F0" stroke-width="1.5"/>


<rect x="133" y="334" width="170" height="110" rx="12"
 fill="#FFFFFF" stroke="#E2E8F0" stroke-width="1.5"/>

<rect x="315" y="334" width="170" height="110" rx="12"
 fill="#FFFFFF" stroke="#E2E8F0" stroke-width="1.5"/>

<rect x="497" y="334" width="170" height="110" rx="12"
 fill="#FBF3DD" stroke="#C9A227" stroke-width="2.5"/>


<!-- 图标 -->
<circle cx="218" cy="123" r="14" fill="#3B82F6"/>

<rect x="192" y="232" width="18" height="26" rx="3" fill="#3B82F6"/>
<rect x="218" y="232" width="18" height="26" rx="3" fill="#3B82F6"/>
<rect x="244" y="232" width="18" height="26" rx="3" fill="#3B82F6"/>

<rect x="203.5" y="353" width="22" height="22" rx="4" fill="#3B82F6"/>
<rect x="232.5" y="353" width="22" height="22" rx="4" fill="#3B82F6"/>
<rect x="203.5" y="382" width="22" height="22" rx="4" fill="#3B82F6"/>
<rect x="232.5" y="382" width="22" height="22" rx="4" fill="#3B82F6"/>


<rect x="374" y="232" width="18" height="26" rx="3" fill="#3B82F6"/>
<rect x="400" y="232" width="18" height="26" rx="3" fill="#3B82F6"/>
<rect x="426" y="232" width="18" height="26" rx="3" fill="#3B82F6"/>

<circle cx="400" cy="123" r="14" fill="#3B82F6"/>
<rect x="385.5" y="353" width="22" height="22" rx="4" fill="#3B82F6"/>
<rect x="414.5" y="353" width="22" height="22" rx="4" fill="#3B82F6"/>
<rect x="385.5" y="382" width="22" height="22" rx="4" fill="#3B82F6"/>
<rect x="414.5" y="382" width="22" height="22" rx="4" fill="#3B82F6"/>


<circle cx="582" cy="123" r="14" fill="#3B82F6"/>

<rect x="556" y="232" width="18" height="26" rx="3" fill="#3B82F6"/>
<rect x="582" y="232" width="18" height="26" rx="3" fill="#3B82F6"/>
<rect x="608" y="232" width="18" height="26" rx="3" fill="#3B82F6"/>

<rect x="567.5" y="353" width="22" height="22" rx="4" fill="#3B82F6"/>
<rect x="596.5" y="353" width="22" height="22" rx="4" fill="#3B82F6"/>
<rect x="567.5" y="382" width="22" height="22" rx="4" fill="#3B82F6"/>
<rect x="596.5" y="382" width="22" height="22" rx="4" fill="#3B82F6"/>


<!-- 公式文字（下移，避免与图标重叠） -->
<text x="218" y="185"
 fill="#1E293B"
 font-size="16"
 text-anchor="middle"
 dominant-baseline="middle"
 letter-spacing="0.3">
 <tspan font-style="italic">f</tspan>(<tspan font-style="italic">x</tspan>)
</text>

<text x="400" y="185"
 fill="#1E293B"
 font-size="16"
 text-anchor="middle"
 dominant-baseline="middle"
 letter-spacing="0.3">
 <tspan font-style="italic">f</tspan>(<tspan font-style="italic" font-weight="700">x</tspan>)
</text>

<text x="582" y="185"
 fill="#1E293B"
 font-size="16"
 text-anchor="middle"
 dominant-baseline="middle"
 letter-spacing="0.3">
 <tspan font-style="italic">f</tspan>(<tspan font-style="italic" font-weight="700">X</tspan>)
</text>


<text x="218" y="307"
 fill="#1E293B"
 font-size="16"
 text-anchor="middle"
 dominant-baseline="middle"
 letter-spacing="0.3">
 <tspan font-style="italic" font-weight="700">f</tspan>(<tspan font-style="italic">x</tspan>)
</text>

<text x="400" y="307"
 fill="#1E293B"
 font-size="16"
 text-anchor="middle"
 dominant-baseline="middle"
 letter-spacing="0.3">
 <tspan font-style="italic" font-weight="700">f</tspan>(<tspan font-style="italic" font-weight="700">x</tspan>)
</text>

<text x="582" y="307"
 fill="#1E293B"
 font-size="16"
 text-anchor="middle"
 dominant-baseline="middle"
 letter-spacing="0.3">
 <tspan font-style="italic" font-weight="700">f</tspan>(<tspan font-style="italic" font-weight="700">X</tspan>)
</text>


<text x="218" y="429"
 fill="#1E293B"
 font-size="16"
 text-anchor="middle"
 dominant-baseline="middle"
 letter-spacing="0.3">
 <tspan font-style="italic" font-weight="700">F</tspan>(<tspan font-style="italic">x</tspan>)
</text>

<text x="400" y="429"
 fill="#1E293B"
 font-size="16"
 text-anchor="middle"
 dominant-baseline="middle"
 letter-spacing="0.3">
 <tspan font-style="italic" font-weight="700">F</tspan>(<tspan font-style="italic" font-weight="700">x</tspan>)
</text>

<text x="582" y="429"
 fill="#1E293B"
 font-size="16"
 text-anchor="middle"
 dominant-baseline="middle"
 letter-spacing="0.3">
 <tspan font-style="italic" font-weight="700">F</tspan>(<tspan font-style="italic" font-weight="700">X</tspan>)
</text>


<!-- 底部说明 -->
<text x="400" y="545"
 fill="#64748b"
 font-size="15"
 text-anchor="middle"
 dominant-baseline="middle">
 3 × 3 = 9 种组合
</text>

</svg>