<svg xmlns="http://www.w3.org/2000/svg" width="1672" height="941" viewBox="0 0 1672 941"><defs><linearGradient id="bg" x1="0" y1="0" x2="0" y2="1"><stop offset="0" stop-color="#f7f9fd"/><stop offset="1" stop-color="#e9eef7"/></linearGradient></defs>
<rect width="1672" height="941" fill="url(#bg)"/>
<rect x="486" y="190" width="700" height="560" fill="#1e293b" rx="56"/>
<circle cx="770" cy="190" r="34" fill="none" stroke="#64748b" stroke-width="12"/>
<circle cx="902" cy="190" r="34" fill="none" stroke="#64748b" stroke-width="12"/>
<rect x="526" y="240" width="300" height="460" fill="#ffffff" rx="28"/>
<rect x="846" y="240" width="300" height="460" fill="#ffffff" rx="28"/>
<rect x="556" y="276" width="240" height="46" fill="#3b82f6" rx="14"/>
<rect x="556" y="342" width="240" height="46" fill="#16a34a" rx="14"/>
<rect x="556" y="408" width="240" height="46" fill="#f97316" rx="14"/>
<rect x="556" y="474" width="240" height="46" fill="#94a3b8" rx="14"/>
<rect x="556" y="540" width="240" height="46" fill="#60a5fa" rx="14"/>
<rect x="876" y="276" width="240" height="46" fill="#3b82f6" rx="14"/>
<rect x="876" y="342" width="240" height="46" fill="#16a34a" rx="14"/>
<rect x="876" y="408" width="240" height="46" fill="#f97316" rx="14"/>
<rect x="876" y="474" width="240" height="46" fill="#94a3b8" rx="14"/>
<rect x="876" y="540" width="240" height="46" fill="#60a5fa" rx="14"/>
<rect x="788" y="34" width="96" height="150" fill="#ffffff" stroke="#16a34a" stroke-width="8" rx="22"/>
<rect x="812" y="72" width="48" height="26" fill="#16a34a" rx="13"/>
<rect x="816" y="114" width="40" height="16" fill="#bbf7d0" rx="8"/>
</svg>
